<svg width="1440" height="2266" viewBox="0 0 1440 2266" fill="none" xmlns="http://www.w3.org/2000/svg">
<rect width="1440" height="2266" fill="#1E1E1E"/>
<g clip-path="url(#clip0_0_1)">
<rect width="1440" height="2266" fill="#8D6BA8"/>
<path d="M-1 876.934C184.231 816.939 614.114 720.845 851.797 816.431C1089.48 912.018 1340.97 896.594 1437 876.934V1028H-1V876.934Z" fill="#D9D9D9" stroke="#D9D9D9"/>
<path d="M1437.12 1158.73C1251.82 1218.51 821.822 1314.11 584.25 1218.25C346.678 1122.38 95.1728 1137.52 -0.883281 1157.07L-0.708481 1006L1437.29 1007.66L1437.12 1158.73Z" fill="#D9D9D9" stroke="#D9D9D9"/>
<path d="M899.973 -52.4332C701.992 60.7132 231.96 276.304 -64.3265 233.497C-360.613 190.69 -645.575 272.375 -751.019 318.569L-788 154.002L862.992 -217L899.973 -52.4332Z" fill="#D9D9D9" stroke="#D9D9D9"/>
<path d="M-4.95097 2386.63C193.569 2262.72 665.588 2035.33 965.512 2117.1C1265.44 2198.88 1552.26 2122.77 1658.17 2074.49L1697.73 2285.27L34.6073 2597.4L-4.95097 2386.63Z" fill="#D9D9D9" stroke="#D9D9D9"/>
</g>
<defs>
<clipPath id="clip0_0_1">
<rect width="1440" height="2266" fill="white"/>
</clipPath>
</defs>
</svg>
